<?xml version="1.0" encoding="utf-8"?>
<!-- Generator: Adobe Illustrator 22.1.0, SVG Export Plug-In . SVG Version: 6.00 Build 0)  -->
<svg version="1.1" id="Layer_1" xmlns="http://www.w3.org/2000/svg" xmlns:xlink="http://www.w3.org/1999/xlink" x="0px" y="0px"
	 viewBox="0 0 900 900" style="enable-background:new 0 0 900 900;" xml:space="preserve">
<style type="text/css">
	.st0{opacity:0.2;}
</style>
<path class="st0" d="M470.4,264.1c5.1-2.9,11.2-1.8,15.5-6c1-0.9,2.3-0.8,3.2-0.2c1.4,0.9,1.1,2.3,0.3,3.5c-1.2,1.6-3.1,3.1,0.9,3.7
	c1.3,0.2,1.6,2.3,1.5,3.9c-0.6,8.1,2.4,15.6,4,23.3c1.1,5.5,1.4,11.2,4,16.3c0.3,0.5,0.3,1.4,0.1,2c-3.6,11.7-4.2,24.1-7.8,35.8
	c-2.5,8-4.5,16.3-5.2,24.7c-0.3,3.8-0.5,7.4-6.4,5.5c-2.7-0.9-6.3-0.1-9.3,0.9c-8.5,2.8-17.3,1-25.9,2.8
	c-13.5,2.7-26.8,6.2-40.2,8.8c-12.3,2.4-24.2,6.7-37,7.1c-9.4,0.3-18.4,3.8-27.4,6.6c-0.8,0.2-1.6,0.6-2.4,0.8
	c-1.8,0.5-4.2,2.1-5.2-0.4c-1-2.8,2.1-2.8,3.8-3.4c13.5-4.8,27.2-8.7,41.6-9.4c4-0.2,4.1-2.3,3.1-5.4c-3.2-9.6-5.9-19.4-6.8-29.5
	c-0.3-2.8-1.7-5-2.2-7.6c-0.2-1.2-0.4-2.5,0.9-3c1.5-0.6,1.9,0.7,2.4,1.8c1.1,2.8,2.1,5.5,2.6,8.5c1.9,11.2,5.1,22,8.6,32.9
	c4.3,0,7.7-2.7,11.7-3.5c0.8-0.2,1.4-0.6,1-1.3c-2.7-5.2,0.2-11.4-3.7-16.6c-3.3-4.3-4.4-10-5.4-15.4c-0.2-1.2-0.5-2.5,1.1-2.8
	c1.3-0.3,1.7,0.9,1.9,1.9c1.6,7,4.6,13.5,8,19.8c1.1,2.1,1.2,4.4,1,6.8c-0.4,5.3,2.1,7.4,7.2,5.8c13.3-4.3,27.1-6.4,40.8-8.8
	c6.8-1.2,13.8-1.3,20.6-2.2c9.1-1.2,10.8-2.9,8.2-12.3c-3.3-11.7-6.5-23.4-10-35.1c-0.7-2.4-1.1-4.6,1.7-5.3
	c2.2-0.5,3.1,1.6,3.8,3.7c3.6,10.6,6.4,21.4,9.6,33.2c1.2-3.4,3.3-5.8,0.5-8.7c-0.4-0.4-0.8-1.5-0.7-1.6c5.4-3.9,1.1-8.3,0.1-12
	c-2.4-8.9-5.8-17.6-7.7-26.7c-0.2-0.9-0.9-1.8-1.4-2.9c-2.7,2.6-3.1,6.3-4.3,9.4c-1.2,3.2-3.3,4.3-6.1,5c-7.9,2-16,2.6-23.9,4.4
	c-13.2,3.1-26.5,6.2-40,7.9c-8.8,1.1-17,4.3-25.5,6.3c-3.7,0.8-7.1,2.1-11.1,2.5c-11,1.2-21.7,4.3-32.3,7.7
	c-4.4,1.4-9.1,1.9-13.6,2.6c-2.8,0.4-4.7-1.7-6.1-3.4c-0.9-1.1,1.4-2.6,2.5-3.8c7.9-8.7,14.4-18.5,21.1-28.2
	c0.9-1.4,1.8-2.8,2.9-4.1c1.1-1.4,2-3.4,4.3-2.4c2,0.9,1.8,2.7,0.7,4.5c6-0.5,11.5-3.3,17-0.3c0.4,0.2,1.1,0.3,1.4,0.1
	c4.6-3.7,10.6-3.2,15.9-4.9c-12.7-4.7-25.9-6.1-38.9-6.3c-8.4-0.1-15.6-3.1-23.2-5.4c-3.7-1.1-5.7-3.5-4-7.5
	c1.5-3.6,0.8-8.9,7.8-7.9c4.7,0.7,8.7,2.8,13.9,4c-4.7-9-3.6-17.8-0.1-26.6c2.3-5.7,6.1-9.8,11.4-12.5c1.8-0.9,3.7-1.5,4.8-3.3
	c2.5-4.1,6.1-5.6,10.9-5.4c11.1,0.5,21.9,10.4,24.5,23.5c3.8-9.5,9.2-17.3,16.7-23.3c0.4-0.3,0.9-0.8,0.9-1.1c-0.7-6.6,4-6,8.2-6.1
	c0.8,0,1.6-0.3,2.4-0.4c2.5-0.4,4-3.4,7.3-2.1c6.4,2.4,12.8,4.5,16.5,11c2.6,4.6,5.6,9,5.7,14.6c0,2.4-0.6,4.5-2.5,5.6
	c-8.4,5-9.8,14.3-15.2,22.5c3.2-0.7,4.7-2,6.1-3.2c8.5-7.7,16.8-15.6,25.5-23c2.2-1.9,2.5-7,7.2-5.2
	C467.2,250.6,471,259.3,470.4,264.1z M392.7,325.9c2.3,0,2.9,0.1,3.5,0c12.1-1.8,24-4.7,36-7.2c10.7-2.2,21.4-4.2,32.2-6.2
	c2.7-0.5,4.1-1.7,5.1-4.5c1.4-4,1.1-8.2,2.3-12.1c1.1-4-0.9-4-3.5-3.3c-5.3,1.4-10.7,2-16.1,2.9c-13.1,2.2-26.2,3.9-39.1,7.2
	c-1.9,0.5-4.8,2.6-5.5-0.1c-0.7-2.5,2.9-2.5,4.7-3.1c19.2-6.3,39.5-6.9,59-11.7c2.9-0.7,3-2,3.7-4.2c-0.9,0-1.7-0.3-2.2-0.1
	c-10.2,4.3-21.4,4.2-32,6.5c-1.2,0.3-2.8,0.9-3.5-0.8c-0.8-2,0.9-2.6,2.4-3c2.7-0.7,5.5-1.6,8.2-1.8c9.4-0.6,18.2-3.3,26.8-6.8
	c1.2-0.5,2.3-0.7,2.9-2.1c1.3-3.3,2.9-6.5,4.4-9.9c-2-0.9-3.4,0.5-5,0.7c-3.1,0.3-6.9,4.5-9-1.6c-0.3-1-1.4-0.1-2,0.5
	c-6.2,5.7-13.5,9.7-21.1,13c-11.2,4.8-20.4,13-31.7,17.7c-5.5,2.3-11.8,2.4-16.8,6.2c-1.1,0.8-2.2-0.1-3-1c-0.9-1-0.5-1.9,0.3-2.6
	c3.1-2.6,3-5.3,0.7-8.4c-0.8-1.1-1.1-2.8-1.2-4.2c-0.6-10.6,0.6-21.1,3.6-31.4c0.6-2.2,2.3-4.2,1.9-7.9c-3.9,6-7.1,11.2-8.7,17.1
	c-2.6,9.6-0.7,19.1,1,28.6c1.5,8.2-0.8,12.4-7.8,16.6c-6.3,3.7-14.1,2.5-19.9,7.2c-0.5,0.4-1.8,0.3-2.3-0.1
	c-3.8-2.8-7.8-1.1-11.5-0.3c-4.8,1-9.7,3-12.9,6.8c-6.2,7.4-11.9,15.3-17.8,22.9c1.2,0.4,2.4,0,3.7-0.4c12.7-3.2,24.9-8.1,37.8-10.1
	c8-1.2,13.8-4.3,17.7-11.6c2-3.7,4.3-7.5,7.5-10.5c0.9-0.9,1.9-2.3,3.3-0.9c1.1,1.1-0.1,2-0.7,3c-3.3,5-6.6,10-10.7,16.1
	c5.1-1.5,10.1-1.1,11.8-4.9c2.4-5.3,8.2-8.2,9.5-14.2c0.2-1,1.3-2.8,2.9-1.8c1.6,1,0.4,2.4-0.1,3.5
	C399.4,317.7,397.8,322.1,392.7,325.9z M347.9,259.8c-0.1,4.2-0.1,5.4,2.2,8.6c8.1,11.2,18.4,19.3,32.2,22.2
	c1.2,0.3,3.1,1.8,3.4,0.2c0.4-1.9-0.8-5.9-1.2-5.9c-7.3,0.2-5.7-6.3-7.7-9.9c-4.4-8-8-16.4-15.6-22.1c-3.4-2.6-13.4-3.6-16.7-1.5
	c-8.7,5.7-11.4,21.8-5.1,30.3c7.5,10,17.9,15.3,30.2,17c3.8,0.5,7.5,2.9,11.5,1.3c1.2-0.5,3.1-0.3,3.1-2c0-1.8-1.9-1.2-3.1-1.7
	c-6.8-2.7-14.6-3.5-20.2-8.9c-2.6-2.5-5.1-5.2-8-7.4c-6.7-5-9.4-11.7-9-19.8c0.1-2.1,0.5-4.6,2.9-4.3
	C349.4,256.1,347.4,258.5,347.9,259.8z M397.8,277.5c0.1,3.4,0.1,6.7,1.1,9.9c1,3.4,2.6,3.2,4.6,0.9c3-3.3,5.3-7.2,7.9-10.8
	c7.9-11,10.4-23,7.5-36.2c-0.9-4.1-4.1-5.8-7.7-5.7c-3.3,0.1-2.5,3.1-2.3,5.4c0,0.4-0.3,1-0.6,1.3
	C398.7,252.3,399.8,265.3,397.8,277.5z M490.7,329.3c0.4-1.7,0.9-3.1,0.9-4.6c0-5.3,3.2-10.3,2.2-15.6c-2.6-13.7-5.8-27.3-7.1-41.8
	c-5.6,8.5-7.9,17.8-10.6,26.9c-0.3,1,0.1,1.9,0.5,2.8C481.4,307.6,484.6,318.8,490.7,329.3z M421.7,233.4
	c10.5,24-0.1,42.3-14.3,59.9c4.6-2.1,9-2.8,10.8-9.3c2-7.1,6.8-13.5,9.6-20.5c1.3-3.3,3.7-6.6,6.8-8.3c3.2-1.8,2.7-3.5,1.9-6
	c-1.3-4.3-3.5-8.2-6.4-11.7C428,234.9,425.2,233.3,421.7,233.4z M383.6,282.4c0.1-5-0.7-10,0.4-14.9c0.1-0.6,0-1.6-0.3-1.8
	c-3.2-2.1-3.7-5.6-4.9-8.9c-2.5-7-7.1-12.4-14.4-14.7c-4.1-1.3-8.5-1.8-11.8,3.3C372.5,249.8,377.1,266.7,383.6,282.4z M347.4,296.8
	c-5.6-3.1-8.7-10.7-17.1-8.5c-2.3,0.6-4.9-1.6-7.3-2.5c-1.7-0.7-4.4-1.6-5.6,1.2c-1.2,2.7,0.1,4.3,2.7,5.2
	C328.9,295.3,337.7,298,347.4,296.8z M442.6,273.2c3.4,0.1,5.5-1.8,7.6-3.1c4.8-2.8,9.9-5.4,13.6-9.9c1.5-1.8,0.2-2.7-0.5-3.7
	c-1.2-1.9-1.9,0-2.5,0.6C454.8,262.3,448.9,267.6,442.6,273.2z"/>
<path class="st0" d="M323.7,389.5c-1.3-6.4-2.9-14.2-4.6-21.9c-0.8-3.4-2-6.6-2.8-10c-0.3-1.5-0.6-3.6,1.7-4.1
	c2.1-0.5,2.4,1.4,2.9,2.7c3.8,10.6,7.2,21.3,8.1,32.5c0.4,5.3,2.2,10.2,2.1,15.5c0,1.6,0.2,3.1-2,3.2c-1.6,0.1-3.3-0.2-3.4-2
	C325.3,400.5,322.1,396,323.7,389.5z"/>
<path class="st0" d="M744.7,110.7c17.2,0,32.6,11,39.9,26c9.6,19.7,10.8,41.1,15.2,61.9c4.7,22.4,5.4,45.3,3.8,67.9
	c-0.7,9.2-1,18.7-3.6,27.9c-2.3,8.2-13.4,14.6-19.7,10.9c-1-0.6-3.3-1.5-1.8-2.7c2.8-2.3,0.7-4.4,0.6-6.5
	c-0.6-12.9-1.6-25.7-0.6-38.6c1.1-14.5,0.2-28.9,0.2-43.4c0-16-3-31.3-6.3-46.8c-1.9-9.1-5-17.7-10.8-24.8
	c-5.6-6.9-13.9-11-22.4-9.4c-8.7,1.6-16.4,6.2-18.7,16.8c-3.4,15.8-2.7,31.6-0.1,47.3c1.2,7.3,0.3,10.6-5.8,11.2
	c-8.4,0.8-11.4,0.6-13.8-6.9c-5.5-17.4-5.5-34.7-1.2-51.9c2.4-9.3,7.6-17.9,14.3-25.3c5.9-6.5,12.5-11.2,21-13.3
	C738.2,110.3,741.7,111.1,744.7,110.7z M702.8,186.9c0.7,4.2,1.4,8.4,2.2,12.6c0.9,4.2,5.9,6.7,9.7,4.9c1.2-0.6,2.1-1.1,1.5-3
	c-2.3-6.8-1.8-14.2-3.7-21.5c-1.8,1.5-3.3,2.7-4.7,4.1c-1.3,1.3-2,3.7-4.6,2.5c0.2-2.2,0.9-4.3,2.8-5.6c8.6-6.1,7.1-14.9,7-24
	c-5.4,2.6-9.7,6.4-11.1,10.7C699.9,173.6,699.8,180.6,702.8,186.9z M727.7,132.2c5.2-3.7,10.5-6.9,17.3-4.6c1.1,0.4,2.8,0.6,3.8-0.5
	c1.3-1.4-2.5-10.3-4.5-10.5c-9.8-1.1-17.7,2.8-25.2,9.9C723.8,126.6,727,127.8,727.7,132.2c-1.5-0.2-3-0.3-4.4-0.6
	c-7-1.4-8.9-0.7-12.4,5.3c-2.2,3.8-4.4,7.8-6.1,11.9c-1.2,3.1-2.1,6.5-1.6,10.5c2.4-1.9,4.1-4.4,6.4-5.1c4.4-1.4,5.2-4.7,6.4-8.4
	C717.9,139.7,720.9,134.3,727.7,132.2z M785.7,281.7c2.5-2.3,4.9-4.2,7-6.5c1-1.2,3.2,1.3,3.4-1.4c0.4-4.2,2.1-8.2,2.1-12.6
	c0.2-11.5-1.2-22.9-1.1-34.4c0-2,0-4.1,0-7.3c-2.6,3.1-4.1,5.3-5.9,7.2c-1.1,1.1-2.7,2.8-4.2,1.3c-1.6-1.7,0.9-2.4,1.7-3.3
	c8.1-9.1,9.2-21.9,2.9-31.9c-1.6,1.8-3.1,3.9-5,5.5c-2,1.7-2.6,3.5-2.3,6.1c1.2,10.4,0.3,21,0.9,31.4c0.4,6.7-0.4,13.4,0,20.2
	c1.7,0.1,2.3-1.1,3.3-1.6c1.9-1,3.8-4.7,5.6-2.4c1.9,2.4-2.1,3.8-3.7,5.3c-2.6,2.3-5.9,4.1-6.2,8C783.7,270.6,783.8,276,785.7,281.7
	z M750.7,116.6c1.1,3.5,3.2,6.6,2.8,9.3c-0.6,3.7,1.5,4.5,3.6,5.7c4.5,2.4,7.9,5.6,11,9.7c6.7,8.7,8.6,18.9,10.8,29.1
	c1.8,8.2,3.6,16.5,5.5,25.2c3.5-3.5,6.5-7.1,6.3-10.8c-0.4-7.3-2.4-14.5-3.7-21.7c-2,0.3-1.9,3.9-4,2.5c-2-1.4,0-3.2,0.7-4.7
	c0.5-1.2,1.4-2.2,1.4-3.6c-0.6-9-5.6-16.1-9.5-23.7c-0.6,1-0.5,1.8-0.8,2.6c-0.7,2.2-0.4,6.6-2.2,6.3c-3.1-0.5-1.5-4.4-1.4-6.7
	c0.2-4.7,0.3-9.4-4.8-11.7C761.4,121.7,757.3,117,750.7,116.6z M795.6,277.1c-2.3,2.2-4,4.3-6.1,5.7c-4.1,2.7-5.3,6.4-4.6,11
	c0.4,2.4,0,4.7-2.7,6.6c7.1-0.7,9.6-1.8,10.9-5.5C795.2,289.5,796.6,283.8,795.6,277.1z"/>
<path class="st0" d="M111.3,472.6c0.4-1.3,0.8-2.5,1.3-3.7c0.2-0.7,0.8-1.1,1.5-1c1,0.1,1.7,0.9,1.4,1.7c-3,9.7,4.3,15.4,8.6,22.2
	c4.8,7.7,5,15.4,0.1,23c-1.9,2.9-4.4,5.3-5.4,8.6c1,1,1.7,0.3,2.4,0c2.8-1.3,5.6-3.9,8.6-1c3.1,3,6.1,6.2,4,11.3
	c-1.7,4-1.3,8.1,0,12.2c2.3,6.7,2.2,13.5,1.7,20.6c-0.6,9.7,0.2,19.6,1.6,29.3c0.4,3,0.3,5.9,0.1,8.9c-0.6,11.9-1.5,23.8-0.1,35.7
	c0.5,4.3-1.1,7.7-5.5,9.4c-5.2,2-10.7,2.1-16.1,2.6c-4.2,0.4-8.5-5.1-8.7-9.8c-0.6-14.4-0.8-28.9-2.2-43.3c-1-9.9-0.9-19.9-1.5-29.8
	c-0.9-13.3,0.2-26.9,9.6-37.9c1.1-1.2,1.6-2.7,0.6-4.1c-0.9-1.2-2-0.2-3.1,0.1c-5.6,1.2-12.1-2.6-14.5-7.9c-4.9-11-4.5-21,4.1-30.3
	c3.7-4,5.3-9.5,5.9-15c0.2-1.6,0.4-3.6,2-4.3C110,468.9,109.3,472.1,111.3,472.6z M111.7,621.4c0,7.9,0.2,14.1-0.1,20.2
	c-0.2,3.9,1.9,4.7,4.8,4.5c3.8-0.2,7.6-0.7,11.4-1.4c2.9-0.6,4.5-2.1,3.7-5.7c-0.8-3.3-1.2-6.8-1.2-10.2c0-12.9,1.8-25.8-0.1-38.7
	c-1.2-7.7-0.5-15.5-1.3-23.2c-0.4-3.4,1.5-6.7,0.8-10.3c-1.5-8.4-5.9-16.6-2-25.5c0.4-0.9-0.1-2-1-2.6c-1-0.7-1.9,0.2-2.7,0.6
	c-3.3,1.6-2.4,4.7-2.4,7.4c0.1,5.2-1,6.1-5.6,4.1c-1.8-0.8-1.7,0.5-2,0.9c-1.2,2.6-2.9,5-3.5,8c-2.7,14.5-0.9,29-0.4,43.4
	C110.6,602.9,111.9,613,111.7,621.4z M110.3,479.3c-2.4,5-3,10-6.5,13.3c-7.4,7-7.4,14.8-4.3,23.7c1.3,3.9,4.1,5.3,7.4,6.5
	c1.1,0.4,2.4,0.7,3.4-0.1c1.1-1,0.2-2.1-0.2-3.1c-1-2.4-2.1-4.9-3.1-7.3c-0.7-1.7-2.4-3.8,0.4-5.1c2.7-1.3,3.9,0.6,4.8,2.8
	c1.3,2.9,1.7,6.2,4,9.1c1.2-1.9,2.1-3.5,3-5c5.4-8.4,5.6-14.4-0.4-21.7C115.7,488.5,112.5,484.7,110.3,479.3z"/>
<path class="st0" d="M761.6,733.3c7.3,4.8,13.7,10.9,22.2,14c1.9,0.7,3.3,1.4,5.5,0.9c15.2-3.1,15.2-3.1,20.3-17.5
	c0.9-2.5,1.2-6.8,4.9-5.5c4.6,1.7,0.9,4.9-0.2,7.3c-1.2,2.5-2.6,4.9-3.8,7.4c-0.3,0.7-0.3,1.5-0.5,2.5c4.1-0.5,7.8-1.1,11.5-1.5
	c1.9-0.2,3.4,0.5,3.8,2.4c0.3,1.9-1.2,2.7-2.7,3c-2,0.5-4,1.9-6.2,1.1c-1-0.4-2.1-0.3-2.7,0.5c-0.7,1,0.3,1.8,0.8,2.6
	c0.2,0.3,0.5,0.5,0.6,0.8c0.7,2,4.5,3.8,1.8,5.8c-2.6,2.1-4.8-1.1-5.6-3.1c-2.2-5.4-5.6-5-10.1-3.3c-2.9,1.1-6.2,1.1-9.4,2.6
	c3.2,3.4,5.5,7.3,9.9,9.1c1,0.4,1.9,1.3,2.8,2.1c1.7,1.5,1.7,3.2,0.4,4.8c-1.4,1.6-2.9,1.2-4.4,0c-2.9-2.4-6.8-3.5-9.1-7.6
	c-1.8,4.4-1.9,8.2-2.3,11.9c-0.4,2.9,2.1,3.9,3.9,5.3c1.4,1.2,3.3,2.2,2.1,4.4c-1.2,2.4-3,1.5-4.6,0.4c-1.9-1.3-2.7-0.6-2.8,1.5
	c-0.1,2.4-1.3,3.3-3.6,2.8c-2.4-0.5-1.8-2.2-1.7-3.9c0.1-2.6,0-5.2,0-8.2c-2.9,0.9-4,3.4-5.9,4.8c-1.7,1.1-3.2,1.2-4.4-0.4
	c-1.3-1.8,0.4-2.5,1.7-3.3c4.1-2.6,6.8-6.7,10.3-10c4.4-4.1,2.4-11.3-3.7-14.8c-4.7-2.7-9.9-4.4-14.7-8c-0.5,4.5-0.8,8.5-1.4,12.4
	c-0.4,2.5,0.1,4.6,2.1,6.3c1.8,1.6,4.6,3.3,2.4,6c-2.1,2.6-4-1-6-1.3c-1.3,1.9-1.1,4.2-1.4,6.3c-0.3,2.2-0.1,5.5-3.3,5.1
	c-3.6-0.4-2.6-3.7-2.3-6c0.4-3.6,1.1-7.1,1.8-11.4c-5.3,3-8.7,9.3-15.8,6.5c-0.1,1.9-0.2,3.7-0.2,5.4c-0.1,2-1,3.2-3.1,3
	c-1.8-0.2-3.1-1.2-3-3.3c0.2-3-0.1-6-1.4-8.9c-1.3,0.6-2.7,1.1-4,1.8c-2.7,1.4-2.5,3.1-0.4,5c3.9,3.5,3.9,3.4-0.2,6.4
	c-0.7,0.5-0.7,2-0.9,3.1c-0.2,1.9-0.9,3.5-3,3.1c-1.7-0.3-2.9-1.6-2.9-3.5c0.1-2.4,1.2-5.9-1.1-6.8c-2.2-0.8-2.7,3.1-4.1,4.7
	c-1.1,1.3-2.2,2.3-3.8,1.3c-2-1.3-1.1-2.8,0-4.2c0.9-1.2,1.7-2.5,2.8-3.5c4.9-4.3,6-9.6,4.6-16.5c-4.2,2.9-6,7.5-9.5,10.6
	c-2,1.7-3.5,6-6.5,3.5c-3.7-3,0.4-5.4,2.3-7.7c1.9-2.4,4.8-4.2,5.8-7.4c-5.9-2.6-12-4-18.4-3.5c-2.4,0.2-5.7,0.8-5.8-2.9
	c-0.1-3.8,3.2-2.9,5.6-3c0.5,0,1-0.1,1.8-0.3c-0.9-1.9-1.4-3.9-2.6-5.3c-1.1-1.3-2.6-2.1-1.4-4.1c0.7-1.1,1.6-1.8,2.8-1.7
	c2,0.2,3.6,1.4,3.9,3.3c0.5,2.9,1.8,5.3,3.9,7.3c1.6,1.5,2.6,2,3.5-0.9c1-3.1,5.5-5.5,4.4-8.3c-0.8-1.9-5.6-2.2-8.6-3.2
	c-2-0.7-2.3-2.2-2.1-4c0.3-2.2,1.9-2,3.4-1.9c1,0.1,2,0.2,2.9,0.6c3,1.4,3.5,0.1,2.9-2.5c-0.3-1.1-0.6-2.2-0.8-3.4
	c-0.2-1.5,0.4-2.6,2-2.8c1.4-0.2,2.7,0.1,3.3,1.6c0.1,0.3,0.3,0.6,0.3,0.9c-0.5,10.1,6.8,10.8,13.9,11.6c2,0.2,4.1,0.1,5.2,2.2
	c0.9,1.7,1.6,0.3,2.2-0.1c8.2-5.3,12.3-15.8,10-25.5c-0.1-0.6-0.4-1.3-0.8-1.6c-4.1-3.5-12.6-3-16.5,0.8c-1.2,1.2-2.5,2.1-3.9,3.1
	c-1.3,0.9-2.7,1.6-3.8-0.3c-1.1-1.7-0.1-2.7,0.9-3.9c1.4-1.5,4.8-2.3,4-4.5c-0.9-2.5-4.2-0.8-6.4-1.3c-1-0.2-1.9-0.4-2.9-0.7
	c-1.6-0.5-3.4-1.4-2.9-3.3c0.6-2.1,2.7-3.3,4.7-2.4c2.1,0.9,4.3,0.4,6.4,0.8c1,0.2,2.4,1.4,3.1,0.1c0.7-1.2-0.2-2.6-0.9-3.7
	c-1.2-1.9-5.6-3.8-1.4-6.1c3.1-1.7,4.7,2.1,6.1,4.4c0.3,0.5,0.5,1.2,0.7,1.9c2,5.7,6.2,8.9,12,9.1c0.5,0,1-0.1,1.4-0.3
	c1.8-1.3,1.8-12.8-0.2-13.5c-6.6-2.3-12.8-6.2-20.3-5.4c-2.5,0.3-4.7,1.2-7,2.3c-1-2.6-0.1-5-0.9-7.5c-0.7-2.1,1.4-3.2,3.9-3
	c6.7,0.6,7.6-0.7,4.8-7.1c-0.5-1.2-1.1-2.4-1.8-3.5c-1-1.4-0.9-2.5,0.5-3.4c1.5-1,2.9-0.7,3.8,0.9c1.6,2.9,3.4,6,3.1,9.3
	c-0.4,5,1.9,7.2,6.3,8.4c2.1,0.6,4.1,1.4,6.1,2.1c1.5-5.7-0.5-11.3,0.6-16.8c0.4-2.1,0.7-3.6,3-3.5c2.7,0.1,3.5,2.2,3,4.2
	c-1,4.1-0.1,8.1-0.7,12.4c9.5-3.8,7.3-13.1,10.2-19.9c0.9-2.2,0.5-4.9,0.9-7.4c0.3-1.7,1.3-3.3,3.4-2.6c1.8,0.6,2.6,1.9,2,3.9
	c-1.6,5.4-3,10.7-4.6,16.5c3.1-1.2,4.5-3.5,6.3-5.3c1.9-1.8,3.9-2.1,5.4,0.3c1.3,2.1,1.1,3.6-1.8,4.3c-1.7,0.5-3.5,2.1-3.5,3.9
	c0,1.9,2.4,1.8,3.8,2.6c1.2,0.6,2.5,1,3.5,1.8c1.1,0.9,1.6,2.2,0.8,3.5c-0.8,1.4-1.9,1.6-3.4,1c-2.6-1.1-5.3-1.9-7.5-3.8
	c-1.8-1.5-3.8-1.6-5.2,0.3c-2.2,2.9-8.9,3-5.8,9.2c-5.5,5.3,0,12-2.5,17.8c6.1-4.5,13.9-7.3,13.7-16.6c0-1.7-0.4-4.1,2.3-4.1
	c3.5,0.1,1.7,2.8,1.9,4.5c0.1,0.6,0.2,1.3,0.3,2.1c3-0.7,3.9-3.8,6.2-5c1.3-0.7,2.7-1.8,4-0.3c1.3,1.5,0.9,3.1-0.4,4.5
	c-0.8,0.8-1.6,1.7-2.5,2.4c-2,1.8-3.5,3.5-0.9,6c0.7,0.6,1.1,1.8,1.2,2.7c0.1,1.4,0.9,3.3-1,3.9c-1.7,0.5-3.4-0.5-3.9-2.3
	c-1.3-5.3-4.4-3.6-7-1.7c-4.2,3-8.2,6.3-12.3,9.4c-1.3,1-2.1,2.1-1.9,3.8c0,0.3,0,0.7-0.1,1c-2.3,9,0.5,15.6,9.4,19.1
	C760.8,732.4,761.2,732.8,761.6,733.3z M761.4,741.9c0.2-1.9-11.9-12.1-14.4-11.4c-0.2,0-0.3,0.2-0.4,0.3c-2.1,2.9-6.3,4.8-6.6,8.5
	c-0.6,6.4-0.9,13,0.1,19.4c0.6,3.9,5.7,6.2,8.7,4.2c6.4-4.2,13.3-8.2,12-17.8C760.7,744.3,761.1,743.4,761.4,741.9z M709.2,746.6
	c8.6,4.2,11,3.3,21.3-8.4c-7.9-1.8-16-4.4-19.7,6.6C710.6,745.5,709.7,746,709.2,746.6z M734.1,744.4c-7.4,3.6-8.3,5.2-6.9,14.1
	c0.2,1.3-1.1,4,1.9,3.5c2.2-0.4,5.4-1,5-3.8C733.6,753.6,734.9,749,734.1,744.4z"/>
<path class="st0" d="M378.2,755.3c-9.6,3.7-14.4,11.4-20.7,17.5c-13.3,12.7-26.5,25.6-41.7,36.7c4.1,3.8,5.3,9.4,7.3,14.5
	c0.6,1.4,0.7,3,0.1,4.4c-0.8,1.9-1.1,4.9-3.9,4.3c-2.8-0.6-0.8-3-0.7-4.6c0.6-5.8-4.2-14.2-9.6-16.5c-1.4-0.6-2.7-1.2-4.2-1.7
	c-1-0.3-2.2-0.7-2-1.8c0.2-1.7,2-1.4,2.8-1c5.1,2.3,8.2-0.6,11.7-3.8c14.3-13.2,29.4-25.4,42-40.3c2.5-2.9,3-6.1,3.3-9.6
	c0.4-5.6,6.1-15.2,10.6-18.6c2.3-1.7,3-4.8,5.8-6.1c2.2-1,4.6-3,6.8-0.6c2,2.1,0.6,4.7-0.5,6.9c-0.3,0.6-0.7,1.1-1.1,1.6
	c-1.2,1.7-4.8,3.5,0.2,5.1c0.4,0.1,0.3,1.8,0.4,2.8c1.8-0.8,2.2-2.5,2.7-4c0.5-1.3,1.3-3.1,2.3-3c3.7,0.2,4.5-2.5,5.9-4.8
	c0.7-1.2,1.8-2.2,3.2-2c1.5,0.1,2.3,1.3,2.4,2.8c0.1,2.5,1.3,3.6,3.8,3.6c1.6,0.1,2.8,1.7,2.1,2.6c-2.5,3.3-1,8.8-6.3,10.7
	c-1.9,0.7-3.5,2.5-5.2,3.8c4.1,4.7,4.6,4.7,8.1-0.4c0.9-1.4,1.9-2.8,2.8-4.2c1.9-2.9,4-4.4,7.2-1.5c1.3,1.2,3.1,1.8,5,2
	c4.3,0.3,4.6,2.9,2.8,5.9c-1.7,2.8-3.9,5.4-6.3,7.7c-2.3,2.3-1.4,6.8-6.1,7.1c2.2,3,3.7,2.4,5.6,0.7c5.2-4.5,8.1-4.5,12.8-0.2
	c1.6,1.5,0.9,3.4,0.4,5.1c-1.4,4.8,0.8,10.5,5.5,12.6c1.8,0.8,3.4,1.5,2.2,3.3c-1.5,2.2-4.2,3-6.9,3c-0.8,0-0.7-1.1-0.3-2
	c1.4-2.7-1.4-3.8-2.6-5.1c-1.6-1.7-2.8,0.6-4,1.6c-3.1,2.5-4.7,5.4-2.3,9.2c0.6,0.9,0.9,1.8-0.1,2.6c-0.8,0.6-1.6,0.2-2.2-0.4
	c-6.7-6.9-13.2-2.5-19.6,1c4.8,0,9.5,0,14.3,0c1.8,0,3.5,0.2,3.5,2.5c0,1.9-1.5,2.3-3.1,2.5c-1.3,0.1-2.7,0.5-4,0.3
	c-9-1.3-17.9,0.5-26.8,1.6c-16.2,2-32.7,2.8-48.1,9.1c-1.5,0.6-3.2,1-4.7,1.5c-1.7,0.6-3.2,0-3.9-1.3c-0.8-1.2,0.7-1.9,1.5-2.7
	c0.3-0.4,2.1-0.3,1-1.4c-3.2-3,0.1-4.4,1.7-5.1c7.4-3.6,11.6-10.4,16.8-16.1c5.8-6.3,12.1-11.9,18.1-17.8
	C369.6,769.7,374.9,763.7,378.2,755.3z M350.6,807.1c2.3-0.4,4.5-0.8,6.8-1.1c10.2-1.4,20.2-2.7,30.1-6.1c8.5-2.9,16.1-8.9,25.7-8.1
	c0.8,0.1,3.2-1.5,1.7-2.6c-2.3-1.6-3.9-5-8-3.4c-3.2,1.3-6.5,4-9.2,4.2c-6.2,0.4-11.8,3.4-17.8,3.7
	C368.3,794.3,360.2,802.4,350.6,807.1z M345.5,800.8c2.8,0.3,4.4-1.2,5.8-2.3c9.9-7.3,21.1-12.5,30.9-20c3.8-2.9,6.5-5.9,7.3-10.5
	c0.3-1.8,0.3-3.6,3.1-3.4c1.9,0.1,2.3-1.7,2.1-3.2c-0.4-2.3-2.4-1.1-3.1-0.7c-3.8,2.6-7.4,5.3-12.3,5.4c-0.5,0-1,0.8-1.4,1.3
	c-3.6,4.8-7.4,9.5-12,13.5C358.8,787,352,793.4,345.5,800.8z M377.1,788.8c7.4-1.2,14.6-2.6,21.5-5.6c1.6-0.7,2.5-2.1,3.4-3.5
	c0.3-0.5,1-1.1,0-1.6c-5.2-2.1-1.7-4.8,0.1-6c4.6-3.1,7-8.4,11.5-11.6c1.9-1.3,3.4-3.6,4.1-6c-1.9-0.8-3.8-1.4-5.6-2.3
	c-1.9-1-2.7,0.3-3.6,1.6c-0.8,1.2-1.3,2,0.6,3c3,1.7,1.9,4-0.4,5.2c-4.2,2.2-7.5,5.5-10.5,9C392,777.9,383.9,782.3,377.1,788.8z
	 M397.9,747.6c-1.1-3.7,6.2-4.5,1.2-8c-3.9-2.7-4,2.7-7.6,3.8C394.4,744.3,396.1,745.1,397.9,747.6z M381.1,731.9
	c-3.8,5.5-8.2,9.5-10.1,15.3c3.7-4.2,7.1-8.6,10.5-13.1C381.6,733.9,381.4,733.5,381.1,731.9z M417.1,775.5c1.5,0.6,2.9,1,4.1,1.8
	c1.3,0.9,2.1,0.4,2.9-0.6c0.8-1.1,0.1-1.5-0.9-2.2C420.9,772.9,418.8,772.2,417.1,775.5z"/>
<path class="st0" d="M607.5,513.6c-5.1-3.7-8.3-8.6-10.7-14.1c-3.6-8-9.4-14.8-12.9-22.9c-4-9.2-9.7-17.8-8.3-28.6
	c-4.8,7.4-9,14.8-14.1,21.7c-1.1,1.5-1.9,3.2-3.8,3.8c-5.6,1.8-8.9,6.1-11.8,10.9c-4,6.8-8.8,12.8-14.1,18.6c-1.4,1.5-3,3-3.7,5.5
	c4.7-1.1,9.2-2.3,13.7-3.3c1.4-0.3,3-0.4,4.4-0.5c1.9-0.1,3.3,0.6,3.5,2.7c0.2,1.9-1.3,2.7-2.7,3c-8,1.6-15.9,3.1-23.9,4.6
	c-3.3,0.6-4-1.7-2.9-3.8c3.1-5.7,5.4-11.8,10.3-16.3c3.6-3.3,6.1-7.4,8.7-11.5c3.9-6.3,8.1-11.8,15.1-15.4c3.3-1.7,5.3-6.2,7.7-9.6
	c2.1-3,3.8-6.2,6-9.9c-3.5,0.5-5.5,2.7-7.9,4.1c-1.6,0.9-3.4,2-4.8-0.1c-1.1-1.8,0.1-3.1,1.5-4.1c2.9-2,3.3-5.6,5.3-8.3
	c-3.1-0.9-6-1.7-8.8-2.6c-2-0.6-3.2-1.9-2.5-4.1c0.7-2.1,2.3-1.6,4.1-1.4c9.4,1.3,10.4,3.1,7.9-8.3c-0.5-2.1-2.2-4.7,1.1-5.9
	c2.8-1.1,3.6,1.5,4.7,3.3c0.7,1.1,1.5,2.2,2.5,3.7c2.3-3.9,3.4-7.8,4.8-11.5c0.8-2.1,1.2-5,4.4-4.2c3,0.8,2.6,3.5,2.3,5.8
	c-0.5,3.6-1.2,7.2-1.8,10.8c-0.3,2,0.2,3.1,2.6,3c2.6-0.2,6.1-1,6.7,2.4c0.7,3.5-3.3,3.4-5.4,4.7c-0.4,0.3-0.8,0.6-1.5,1.2
	c2.6,2.8,5.5,5.2,9,6.6c2.6,1,4.2,2.6,3.3,5.2c-1,3-3.4,3-6.1,1.8c-2.8-1.3-6.8-3.3-8.8-1.4c-2.5,2.3-0.1,6.3,1.1,9.2
	c4.5,10.7,9.5,21.2,16.2,30.7c0.2,0.3,0.5,0.5,0.6,0.8c3.7,9.1,9.6,16.5,17.1,22.7c1.4,1.1,3,2.5,2,4.6c-0.9,1.9-2.6,2.1-4.6,2.4
	c-5,0.6-9.9,1-14.8,0.1c-1.3-0.2-2.6-0.6-3.8-1.2c-1.5-0.8-2.8-2-2-3.9c0.8-1.8,2.3-2.3,4.1-1.7C600,514.1,603.7,513.6,607.5,513.6z
	 M579.9,441.6c-1.9-0.8-3.9-2-3.9-4.4c0.1-3.8-3.5-2-4.2-2c-3,0.1-1.5,3.5-2.8,5.2c-1,1.3,0.6,2.8,1.2,2.6
	C573.4,442.1,577.2,445.9,579.9,441.6z"/>
<path class="st0" d="M603.9,567.7c2.8,9.9,5.7,19.5,9.6,28.8c1.2,2.8,4.8,3.4,6.2,6.4c1,2.1,1.9,4.2,2.7,6.3c1,2.9-0.1,4.8-2.5,6.3
	c-2.3,1.4-4.1-0.1-5.2-1.5c-2.4-3.3-5.9-4.1-9.5-5.5c-1.3,2,0.3,5.8-3.6,6.1c-2.8,0.3-4.6-1.4-6.5-3.1c-1.9-1.8-4.1-3.3-6.3-5.1
	c-1.8,2.9-2.9,5-0.2,8.6c2.9,3.9,1.3,9.3,0.5,14.1c-0.2,1.5-2.1,2.3-4,2.3c-4.5,0.1-8.4-1.8-12-4.1c-2.1-1.3-1.7-3.6-1-5.4
	c0.9-2.3,0.5-4.2-0.8-6.1c-1.7,1.2-3,3.7-5.5,2.4c-2.3-1.2-1.7-3.7-1.9-5.8c-0.3-2.6,1.3-6.3-0.8-7.5c-2.6-1.4-4.2,2.4-6.3,3.9
	c-2.6,2-5.9,2.3-8.7,3.5c-1.4,0.6-2.6-0.3-3.1-1.8c-0.5-1.5,0.7-2.5,1.7-2.6c7.1-0.7,11.1-7,17.2-9.4c3.1-1.3,4.8-1.4,4.6,2.7
	c-0.1,2.4,0.4,4.8,0.6,7.6c2.7-1.4,3.6-3.7,4.6-5.9c1.7-3.6,3.7-4.6,6.6-1.2c0.8,0.9,1.5,2.8,3,2c1.3-0.7,1.6-2.4,1.5-4
	c0-0.3,0-0.7,0-1c0-1.7-0.1-3.4,2-4c2.3-0.6,2.9,1.2,3.5,2.7c1.5,3.9,4,6.7,8.3,9.1c-0.8-2.3-1.4-4-1.9-5.7c-0.4-1.6-0.2-3,1.5-3.8
	c1.7-0.8,2.9-0.3,3.9,1.1c1.5,2.2,3.5,4,6.4,5.1c-0.7-7.6-4.2-14.3-6.1-21.3c-1.6-5.9-2.4-11.8-2.6-17.9c-0.1-2.9,1.8-3.8,4.3-3.3
	c1.6,0.3,3.1,1.2,5.1,0.5c-2-4-3.5-8.3-6.8-11.3c-7.5-6.9-8.6-16.5-11.5-25.4c-0.5-1.5-0.5-3.2,1.2-3.9c2.3-0.9,3.1,1.1,3.4,2.6
	c2.7,12.3,10.5,22,17.1,32.2c1.4,2.1,3,4,4.9,5.6c3.2,2.6,2.2,4.3-1.1,5.7C612.6,568.2,608.3,566.9,603.9,567.7z M577.1,605.7
	c-1.1,3.9-7,6.2-0.5,9.4c1.5,0.7,1.1,3,1.1,4.6c0,1.9-0.6,4,2,5c1.4,0.5,3,1.5,4.1,0.1c1.3-1.6,1.2-3.8,0.7-5.7
	C583.4,614.3,579.6,611,577.1,605.7z"/>
<path class="st0" d="M280.1,842.8c-8,2.5-14.8,7.2-22.5,10.2c-0.6,0.2-1.1,0.7-1.8,0.9c-1.8,0.6-3.9,2.5-5.3,0.1
	c-1.5-2.6,1.3-3.2,2.9-4.2c2.1-1.3,4.2-2.7,6.7-4.3c-2.8-1-4.5-2.3-3.2-5.1c0.1-0.1,0.3-0.4,0.2-0.4c-5-7.4,2.4-6.3,5.5-8.1
	c1.9-1,3.7-2.1,5.5-3.9c-3.8,0.6-7.7,1.3-11.5,1.9c-1.4,0.2-3.4,1-3.9-0.9c-0.7-2.1,1.3-2.8,3-3.1c6.9-1.6,14-1.9,20.9-4.3
	c-0.1-1.6-3-2.6-0.7-4.6c1.9-1.7,3,0.2,4.4,0.6c0.5,0.1,0.8,0.6,1.3,0.7c9.8,1.8,11.6,10.2,14.8,17.5c1.9,4.3,1.2,8.3-1.6,12.1
	c-2.3,3.2-2.7,3.4-4.9,0.1c-1.2-1.9-2.3-0.4-3.2,0c-6.1,3-11.6,7.1-17,11.2c-1.6,1.2-3,3.3-5,1.4c-2-1.8,0.5-2.7,1.3-3.9
	c0.1-0.1,0.3-0.3,0.3-0.4c-2.7-7.2,4.4-6.2,7.3-8.7C275.7,845.9,278,844.4,280.1,842.8z M284.9,834.4c2.7,0,2.3,4.3,5.4,4
	c0.5,0,0.5,1.4,0.2,2.2c-0.2,0.7-1.8,1.1-0.5,2.1c0.4,0.3,1,0.3,1.5,0.2c1.5-0.2,1.3-1.4,1.1-2.3c-0.6-3.8-2.2-7.1-4.6-10.5
	C287.7,832.2,285.1,832.4,284.9,834.4c-5.7-1-8.9,3.8-13.4,5.6C276.2,838.7,280.9,837.2,284.9,834.4z M261.1,838.4
	c9.2-2.1,16.4-9.3,26.6-9.6c-1.2-2.2-1.8-5-4.9-3C275.8,830.4,268.2,833.9,261.1,838.4z"/>
<path class="st0" d="M400.2,819.9c-17.7-1-34.9-1.6-51.6,4.3c-2,0.7-4.2,1-6.3,1.4c-1,0.2-2.1,0.3-2.6-0.9c-0.6-1.5,0.4-2.2,1.6-2.5
	c8.7-2.7,17.2-6,26.3-7.2c7.8-1,15.6-1.4,23.4-0.8c3.2,0.2,4.3-2.9,6.9-3c9.4-0.4,18.9-1.7,28.3,0c1.6,0.3,3.5,0.5,3.9,2.5
	c0.3,1.9-1.5,2.5-2.5,3.7c-2.1,2.6-4.5,3.6-7.6,3.6c-1.4,0-2.6,0.3-2.7,2.2c-0.3,5.2-4.3,8-7.6,11.2c-2.7,2.6-5.2,1.7-6.1-2
	c-0.6-2.9-0.7-6-4.9-6.1c-1.1,0-2.1-0.8-2.3-2.3C396.4,821.5,399.4,822,400.2,819.9z M413,822.2c-4.4,0.9-7.4,2.2-4.9,7.2
	C410.5,827.7,412.4,825.8,413,822.2z"/>
<path class="st0" d="M538,554.5c6.1,0.3,11-1.4,16-0.9c2.4,0.2,4.7,0.9,4.6,3.4c-0.1,3.2-3.6,3.3-5.3,3c-6.7-1.4-12.8,0.2-18.9,2.4
	c-1.5,0.5-3.2,0.9-4.8,1.1c-1.2,0.2-2.4,0.1-2.9-1.3c-0.5-1.3,0.3-2.1,1.1-3.1c9.7-12.7,18.6-25.8,23.1-41.4
	c0.2-0.8,0.5-1.6,0.8-2.4c0.4-1.2,1.3-1.9,2.7-1.8c1.7,0.2,1.4,1.6,1.4,2.7c0.1,5.1-2,9.7-3.9,14.2
	C548.3,538.7,544.2,546.6,538,554.5z"/>
<path class="st0" d="M301,817.5c1.6,3.8,2.7,6.3,3.7,8.9c2.2,5.9,0.5,11.4-2.2,16.7c-0.5,1-1.4,2.1-2.8,1.5c-1.3-0.6-1.2-1.9-1-3.1
	c0.3-2,0.7-3.9,1.1-5.8c2.1-9.3-4.2-18.5-13.6-19.7c-1-0.1-2.2,0.1-2.1-1.4c0.3-2.1,1.4-4.4,3.5-4.2c6.9,0.5,15.1-2.8,19.5,6.3
	c0.8,1.6,3,2.5,4.5,3.7c4.6,3.6,6.3,14,2.9,18.7c-0.7,0.9-1.3,2.1-2.7,1.6c-1.3-0.5-1.6-1.7-1.2-2.9c2.2-6.9,1.1-12.7-5.7-16.5
	C303.9,820.6,303.1,819.4,301,817.5z"/>
<path class="st0" d="M761.6,733.3c-0.4-0.4-0.8-0.9-1.2-1.3c-0.3-2.9,1.5-4.1,3.7-5.2c3.8-2,7.3-4.6,11.3-6.2
	c4.9-1.9,5.5-5.5,5.5-9.9c0-1.3,0.1-2.6,0.2-4c0.2-1.6,1.3-2.4,2.7-2.3c1.4,0.1,1.5,1.5,1.5,2.7c0,2.5,0,5,0,8.1
	c4.4-1.9,8.5-3.6,12.5-5.3c2.2-1,4.8-2,6.1,0.7c1.5,3-1.3,4.1-3.4,4.9c-2.8,1-4.5,5.5-8.5,2.7c-0.3-0.2-1.5,0.7-1.9,1.3
	c-0.6,0.9,0.2,1.5,0.9,2c2,1.5,4,3,5.9,4.5c1.3,1,1.9,2.4,0.7,3.9c-1.2,1.5-2.7,1.3-4,0.4c-2-1.5-4-3-5.7-4.8
	c-2.8-3.2-5.7-3.2-9.2-1.2C773.2,727.5,767.3,730.3,761.6,733.3z"/>
<path class="st0" d="M556.6,566.1c-4.2,8-5.9,17.3-10.5,25.4c-2.1,3.8-5.5,6.9-5,12.3c0.3,2.8-3.8,5.6-6.6,7.7
	c-0.8,0.6-1.7,0.4-2.2-0.3c-0.3-0.4-0.4-1.5-0.1-1.8c3.1-2.5,3.7-5.5,2.5-9.2c-0.3-0.9,0.7-2.5,1.5-3.6c5.8-8,9.6-17,12.6-26.3
	c0.8-2.4,2.1-4.5,3.8-6.4c0.7-0.8,1.7-1,2.7-0.5C556.3,563.9,556.7,564.7,556.6,566.1z"/>
<path class="st0" d="M560.5,575.2c0-3.2,4-6.6,8.6-6.2c2.8,0.2,6.8-0.1,7.5,4.2c0.4,2.8-7.6,10.3-10.7,10
	C561.4,582.5,561.1,578.7,560.5,575.2z"/>
<path class="st0" d="M573.7,495.5c0.7-3.2-2.4-8,3.6-8.6c3.1-0.3,8.5,5.1,8.4,7.9c-0.2,3.9-4.4,7.7-8.4,7.6
	C571.9,502.2,574.5,498,573.7,495.5z"/>
<path class="st0" d="M563.7,543.5c-2.5-0.2-5.9-1.8-6.2-5c-0.4-3.6,2.7-5.2,6.4-4.9c2.2,0.2,3-2.3,5-2.7c2.2-0.4,4-0.7,4.6,2
	C574.5,536.7,568.6,543.6,563.7,543.5z"/>
<path class="st0" d="M587.1,553.8c-3.2-0.5-5.8-1.9-6.1-5.8c-0.2-3.3,3.5-7.5,6.6-7.5c2.8-0.1,6.8,3.9,6.9,6.9
	C594.6,550.2,590.7,553.8,587.1,553.8z"/>
<path class="st0" d="M566.1,485.5c2.3,0,4.5,0.2,4.7,3.2c0.2,2.9-7,8.9-10.4,8.7c-2.1-0.1-3.5-0.9-3.6-3.2
	C556.8,490.6,562.4,485.5,566.1,485.5z"/>
<path class="st0" d="M703.6,755.7c-2,3.9-4.3,8.6-6.8,13.2c-0.6,1.2-2.1,0.6-3.1,0c-1-0.6-1.3-1.4-0.8-2.5c2.1-4.1,4.1-8.2,6.3-12.3
	c0.6-1.1,1.7-1.7,2.9-1.5C703.2,752.8,703.7,753.6,703.6,755.7z"/>
<path class="st0" d="M135.5,119.8c2.4,6.1,4.7,12.1,7,18.1c0.7,1.7-0.7,4.5,3,4.5c1.2,0,0.4,1.6,0,2.5c-1.9,3.5-0.7,6,2.6,7.7
	c0.4,0.2,0.8,0.7,1.2,0.9c10.4,2.9,15.6,11.9,22.5,18.9c3.5,3.6,5.4,8,2.6,12.7c-2.9,4.8-6.8,8.9-13.1,8.4c-7.9-0.6-14.6-4-20.3-9.4
	c-5.4-5.1-9.2-11.9-16.3-16.4c-2.7,11-9.2,20-12.9,30.2c-2,5.6-6.3,8.4-11.3,10.4c-1.9,0.8-3.8-0.2-4.9-1.6
	c-2.5-3.5-4.7-7.4-4.6-11.8c0.3-11.8,4-22.6,11.2-31.9c2.7-3.5,2.7-6.5,1.7-10.3c-1.9-8-4.9-15.4-10.2-22c-7.4,5-16,8.4-24.5,12.1
	c-3,1.3-5.9,1.9-9.1,2.1c-3,0.2-5.8,0.1-7.1-3.2c-1.4-3.5-2-7,1.1-10.2c10.2-10.4,21.9-18.7,34.2-26.4c1.2-0.8,3.2-2,4.3,0.1
	c0.9,1.7-0.7,2.7-2,3.5c-10,6.6-19.1,14.3-28.1,22.3c-2.1,1.9-6,4.4-4.3,7c1.6,2.4,5.8,0.7,8.7-0.6c5.7-2.6,11.4-5.3,17.1-7.9
	c2.4-1.1,4.5-2.7,6.3-4.8c2.7-3.1,6-2.9,8.1,0.6c5.1,8.5,9.7,17.4,11.9,27.1c1.2,5.2-2.4,9-4.8,12.9c-5.5,9.2-8.4,19-9.1,29.5
	c-0.1,2.1,1.2,3.7,1.9,5.6c0.8,2,1.9,1.9,3.5,1c1.6-1,3.1-2.2,3.7-4c3.8-10.2,10.2-19.3,13-30c0.6-2.3,1.9-4.6,0.6-7.3
	c-0.7-1.5,0.6-2.5,1.8-3.1c1.3-0.7,2.5-0.5,3.5,0.8c6.3,7.7,14.2,13.8,20.6,21.5c3.9,4.7,9.5,7.1,15.5,8.1c3.7,0.6,6.1-2.1,8.2-4.8
	c2.1-2.7-0.1-4.6-1.8-6.4c-6.5-6.7-11.5-15.6-21.5-17.7c-7-1.5-7-6-8-11.5c-1.8-10.8-4.6-21.4-13-29.3c-1.4-1.3-2.4-2.8-1.3-4.8
	c1.1-1.9,2.9-1.5,4.4-1.3c2.4,0.4,4.8,1.2,7.2,1.7c3.6,0.8,7,0.9,10.7-0.4c5.6-2,11.8-1.6,17.2-4.5c1.4-0.7,3.9-0.1,3.9-2.9
	c0.1-2.7-1.2-4.5-3.3-5.8c-4.8-2.8-10.1-4.4-15.7-4.3c-7.2,0-14.6-0.8-21.7,1c-1.1,0.3-1.9-0.1-2.6-1c-1-1.2-0.4-2.1,0.2-3.1
	c5.1-8.1,4.4-16.7,0.3-24.6c-6.5-12.9-19.7-16.5-33.8-11.6C76.4,61,72.6,77,75.9,87.7c1.5,4.8,5,7.7,10.3,7.9c3,0.1,6,0.1,9,0.2
	c1.5,0,2.6,0.8,2.9,2.2c0.3,1-0.2,1.9-1.3,2.4c-5.8,2.8-17.4,0.9-22.1-3.7c-3.5-3.4-5-7.6-5.5-12.4c-1.1-11.4,1.8-21.3,10.5-29.2
	c10.2-9.3,28.5-9.8,39.6-1.7c11.9,8.7,16.1,20.1,13.7,34.3c-0.6,3.2,1.5,3,3.2,2.7c6.5-1.2,12.9-0.7,19.4,0.3
	c5.4,0.8,10.2,3,14.2,6.6c2.9,2.5,4.3,9.6,2.7,13c-0.7,1.6-1.9,2.9-3.7,3.1c-3.9,0.3-7.2,2.8-10.9,3.2
	C150.4,117.4,143.4,121.6,135.5,119.8z"/>
<path class="st0" d="M112.1,83.9c-0.5,8.5-3.1,10.3-12.1,7.7c-2.1-0.6-4.1-1.3-6.1-1.9c-1.4-0.4-2.5-1.1-2-2.8
	c0.4-1.5,1.5-2.2,2.9-2.2c1,0,1.9,0.2,2.9,0.5c6.8,1.6,6.7,1.6,8.5-4.7c0.5-1.8,1.2-4.4,3.8-3.8C113.7,77.6,112.2,80.8,112.1,83.9z"
	/>
<path class="st0" d="M95.7,66.4c3.3-0.9,6.8-1.9,8,2.8c0.6,2.1-3.5,6.3-5.5,6.3c-3.9-0.2-7-3.4-6.7-7.2
	C91.7,65.3,93.4,65.1,95.7,66.4z"/>
<path class="st0" d="M86.7,68c2.2,0.1,3,2.2,3.5,4.3c0.4,1.7-4.3,7.2-5.8,6.8c-2.4-0.5-3.3-2.1-3.3-4.8C81.2,70.1,82.5,68.2,86.7,68
	z"/>
</svg>
