<?xml version="1.0" encoding="utf-8"?>
<!-- Generator: Adobe Illustrator 22.1.0, SVG Export Plug-In . SVG Version: 6.00 Build 0)  -->
<svg version="1.1" id="Layer_1" xmlns="http://www.w3.org/2000/svg" xmlns:xlink="http://www.w3.org/1999/xlink" x="0px" y="0px"
	 viewBox="0 0 79.4 228.5" style="enable-background:new 0 0 79.4 228.5;" xml:space="preserve">
<style type="text/css">
	.st0{opacity:0.2;}
	.st1{fill:#E5E5E5;}
	.st2{fill:#FFF800;}
</style>
<path class="st0" d="M31,194.5c0,0,0.8,6.2,4.8,6s20.8-0.2,22.8-5.1S56.8,84.2,55.7,80.2s-8.2-9.8-10.7-6C42.5,78,31,194.5,31,194.5
	z"/>
<polygon class="st1" points="43.8,71.2 33.3,78 24.2,94 24.2,118.8 27.4,190 31,194.5 49.9,195.4 53,188.5 51,128.2 51.8,97.8 
	48.5,83.5 52,79.4 "/>
<polygon class="st2" points="13,47 22,34.8 27.4,21.2 30.2,21.2 37,34.1 45.9,47 38.6,64.8 31.6,73.1 25.2,68.5 14.1,65.3 "/>
<path d="M29.6,18.3c0.4-1.3,0.8-2.5,1.3-3.7c0.2-0.7,0.8-1.1,1.5-1c1,0.1,1.7,0.9,1.4,1.7c-3,9.7,4.3,15.4,8.6,22.2
	c4.8,7.7,5,15.4,0.1,23c-1.9,2.9-4.4,5.3-5.4,8.6c1,1,1.7,0.3,2.4,0c2.8-1.3,5.6-3.9,8.6-1c3.1,3,6.1,6.2,4,11.3
	c-1.7,4-1.3,8.1,0,12.2c2.3,6.7,2.2,13.5,1.7,20.6c-0.6,9.7,0.2,19.6,1.6,29.3c0.4,3,0.3,5.9,0.1,8.9c-0.6,11.9-1.5,23.8-0.1,35.7
	c0.5,4.3-1.1,7.7-5.5,9.4c-5.2,2-10.7,2.1-16.1,2.6c-4.2,0.4-8.5-5.1-8.7-9.8c-0.6-14.4-0.8-28.9-2.2-43.3c-1-9.9-0.9-19.9-1.5-29.8
	c-0.9-13.3,0.2-26.9,9.6-37.9c1.1-1.2,1.6-2.7,0.6-4.1c-0.9-1.2-2-0.2-3.1,0.1c-5.6,1.2-12.1-2.6-14.5-7.9c-4.9-11-4.5-21,4.1-30.3
	c3.7-4,5.3-9.5,5.9-15c0.2-1.6,0.4-3.6,2-4.3C28.3,14.7,27.6,17.8,29.6,18.3z M30,167.1c0,7.9,0.2,14.1-0.1,20.2
	c-0.2,3.9,1.9,4.7,4.8,4.5c3.8-0.2,7.6-0.7,11.4-1.4c2.9-0.6,4.5-2.1,3.7-5.7c-0.8-3.3-1.2-6.8-1.2-10.2c0-12.9,1.8-25.8-0.1-38.7
	c-1.2-7.7-0.5-15.5-1.3-23.2c-0.4-3.4,1.5-6.7,0.8-10.3c-1.5-8.4-5.9-16.6-2-25.5c0.4-0.9-0.1-2-1-2.6c-1-0.7-1.9,0.2-2.7,0.6
	c-3.3,1.6-2.4,4.7-2.4,7.4c0.1,5.2-1,6.1-5.6,4.1c-1.8-0.8-1.7,0.5-2,0.9c-1.2,2.6-2.9,5-3.5,8c-2.7,14.5-0.9,29-0.4,43.4
	C28.9,148.7,30.1,158.7,30,167.1z M28.6,25c-2.4,5-3,10-6.5,13.3c-7.4,7-7.4,14.8-4.3,23.7c1.3,3.9,4.1,5.3,7.4,6.5
	c1.1,0.4,2.4,0.7,3.4-0.1c1.1-1,0.2-2.1-0.2-3.1c-1-2.4-2.1-4.9-3.1-7.3c-0.7-1.7-2.4-3.8,0.4-5.1c2.7-1.3,3.9,0.6,4.8,2.8
	c1.3,2.9,1.7,6.2,4,9.1c1.2-1.9,2.1-3.5,3-5c5.4-8.4,5.6-14.4-0.4-21.7C33.9,34.2,30.8,30.4,28.6,25z"/>
</svg>
