<?xml version="1.0" encoding="utf-8"?>
<!-- Generator: Adobe Illustrator 22.1.0, SVG Export Plug-In . SVG Version: 6.00 Build 0)  -->
<svg version="1.1" id="Layer_1" xmlns="http://www.w3.org/2000/svg" xmlns:xlink="http://www.w3.org/1999/xlink" x="0px" y="0px"
	 viewBox="0 0 125.8 117.5" style="enable-background:new 0 0 125.8 117.5;" xml:space="preserve">
<style type="text/css">
	.st0{opacity:0.2;}
</style>
<path class="st0" d="M2.2,72.5c0,0,3.9-22.9,11.9-25.4c8.1-2.4,4.2,1.1,10.8-4.6s12.2-25.7,24.2-27.6S51.4,2,63.7,1.3
	S81.5,13,81.4,15.2c-0.1,2.1,10.4,12.3,17.3,16.6s7,12.8,10,15.1c3,2.3,17.2,10.5,15.5,21.4c-1.7,10.9-10.5,21.8-20.2,24.7
	s-8.7,13.4-15.7,13.2c-6.9-0.3-5.5,9.9-25.4,7.1s-27.2-4.7-32.2-10.2c-5-5.5-8-7.7-12.6-9C13.6,92.7,2.4,81.9,2.2,72.5z"/>
</svg>
