<?xml version="1.0" encoding="utf-8"?>
<!-- Generator: Adobe Illustrator 22.1.0, SVG Export Plug-In . SVG Version: 6.00 Build 0)  -->
<svg version="1.1" id="Layer_1" xmlns="http://www.w3.org/2000/svg" xmlns:xlink="http://www.w3.org/1999/xlink" x="0px" y="0px"
	 viewBox="0 0 125.8 117.5" style="enable-background:new 0 0 125.8 117.5;" xml:space="preserve">
<style type="text/css">
	.st0{fill:#EE3B24;stroke:#231F20;stroke-miterlimit:10;}
	.st1{fill:#E8E5E5;stroke:#231F20;stroke-miterlimit:10;}
	.st2{fill:#FDBB11;stroke:#231F20;stroke-miterlimit:10;}
	.st3{opacity:0.2;}
</style>
<polygon class="st0" points="7.9,68.2 12.8,83.3 27.8,90.3 24.1,66.6 27.8,48.7 16.6,51.5 "/>
<polygon class="st0" points="97.5,87.4 108.4,85 114.9,77.1 116.9,61.8 103.3,51.5 101.4,75.9 "/>
<polygon class="st0" points="42.2,26.8 30.9,42.5 25.7,58.8 25.7,79.2 33.9,97.3 55.3,105.7 72.3,106.6 93.6,90.3 101.2,81 
	103.3,51.5 95,37.2 75.3,21.2 55.3,18.3 "/>
<polygon class="st1" points="55.3,61.8 53.1,76.5 61.8,83.3 68.9,79.2 71.9,76.5 75.3,62.4 71.1,55.3 66.3,51.5 59.2,54 "/>
<polygon class="st2" points="55.3,18.3 72.3,21.2 75.3,11.9 64.8,4.3 59.2,10.1 "/>
<path d="M58.4,108.9c-5.9-1-15.7-1.1-23.6-7.7c-1.1-1-2.2-2-3.1-3.2c-2.7-3.3-5-6.1-10.2-6.8c-7.2-1-12.2-6.3-13.8-13.9
	c-2.1-9.9-1.5-19.1,6.4-26.6c1.6-1.5,3.5-3.3,5.5-3.2c5.7,0.3,7.3-3.5,9.2-7.8c4.7-10.6,13-17.7,23.3-22.6c1.9-0.9,2.9-2,3.6-4
	c1.6-4.3,4-8.2,9.1-8.9c6.7-0.9,12.9,4.6,12.9,11.8c0,2.1,0.7,2.8,2.1,4.2c8.8,8.3,20.6,13.8,24.8,26.3c0.8,2.5,3.3,3,5.2,4.2
	c7.6,5.1,10.5,13.2,9.4,21.2c-1.1,8.1-6.3,15.6-15.2,17.2c-5,0.9-7.7,3.6-10.6,6.8C85.1,105.5,74.5,109.7,58.4,108.9z M99,64.4
	c1-8.8,0.8-17.8-5.9-24.3c-7.2-7-14.9-13.9-25.8-15.1c-0.8-0.1-1.2-0.4-1.3-1.1c-0.4-2.8-2.6-2.5-4.5-2.7c-6.5-0.4-11.1,2.5-15.7,7
	c-16.5,15.9-22,34.6-15.1,56.5c2.1,6.8,7,11.9,13.7,14.7c7.7,3.2,15.8,2.9,24,3.1c11.5,0.2,29.9-17.4,30.6-27.1
	C99.3,71.7,99,68,99,64.4z M24.1,51.5c-8.5,2.2-11.8,8.5-11.2,20.1c0.4,7.2,4.4,12.3,10.9,13.4C19.4,73.8,20.6,62.7,24.1,51.5z
	 M103.3,83.3c6.6-2.9,9.9-7.6,10.1-13.1c0.2-5.5-1.6-11.2-7.4-14.9C105.2,64.7,107.3,73.7,103.3,83.3z M59.2,16.4c3.8,0,6.6,0,9.4,0
	c2.9,0,3.1-1.4,1.7-3.4c-1.3-1.8-2.9-3.1-5.4-2.8C61.5,10.6,61.6,13.7,59.2,16.4z"/>
<path d="M51,73c-0.3-3.9-1.4-7.4-0.4-11.3c1.1-4.6,3.9-7.9,6.8-11.2c2.3-2.6,9.5-2.2,13.3,0.3c5.2,3.4,8,10.6,6.4,16.6
	c-0.6,2.4-1,4.5-0.1,7c1.7,4.9-2.4,9.4-7.4,8.6c-1.1-0.2-2-0.8-3.1,0.3c-3.6,3.4-6.7,1.4-9.5-1.2C54.3,79.5,48.8,78.7,51,73z
	 M71.9,76.5c-3.7-3-2.7-5.8-0.8-8.9c1.2-2,2-5.7-0.1-6c-4.6-0.6-4.2-3.1-3.4-7.7c-2.4,2.7-4,4.4-6.3,2.8c-0.7-0.5-1.1-0.3-1.3,0.6
	c-1.7,4.8-1.1,10.2-4.5,14.5c-0.2,0.2,0.2,1.2,0.4,1.3c2.7,0.5,3.3,3.1,4.6,4.9c1.2,1.6,2.5,1.7,3.5,0
	C65.8,74.7,68.2,73.9,71.9,76.5z"/>
<path class="st3" d="M12.8,79.2c0,0,3.1,1.3,5-0.7s6.2-4.5,6.2-4.5l6.1,18.8l16.2,8.3c0,0,15.9,0,24.8-4.8C80,91.5,85,86,88.7,80.2
	c3.7-5.8,12.2-20.5,12.2-20.5l1.2,13.7V78c0,0,4-0.8,6.4-3.8s6.2-9.2,6.2-9.2l2.2,10.7l-5.9,7.6l-13.5,4.1l-12.9,12.7l-14.5,6.2
	l-19-1.3l-12.8-4.7L27,91.7l-11.8-4.2L12.8,79.2z"/>
</svg>
