<?xml version="1.0" encoding="utf-8"?>
<!-- Generator: Adobe Illustrator 22.1.0, SVG Export Plug-In . SVG Version: 6.00 Build 0)  -->
<svg version="1.1" id="Layer_1" xmlns="http://www.w3.org/2000/svg" xmlns:xlink="http://www.w3.org/1999/xlink" x="0px" y="0px"
	 viewBox="0 0 206.1 201" style="enable-background:new 0 0 206.1 201;" xml:space="preserve">
<style type="text/css">
	.st0{opacity:0.2;}
	.st1{fill:#FF3A1A;}
	.st2{fill:#FFE91D;}
</style>
<path class="st0" d="M169.9,47.4c5.1-2.9,11.2-1.8,15.5-6c1-0.9,2.3-0.8,3.2-0.2c1.4,0.9,1.1,2.3,0.3,3.5c-1.2,1.6-3.1,3.1,0.9,3.7
	c1.3,0.2,1.6,2.3,1.5,3.9c-0.6,8.1,2.4,15.6,4,23.3c1.1,5.5,1.4,11.2,4,16.3c0.3,0.5,0.3,1.4,0.1,2c-3.6,11.7-4.2,24.1-7.8,35.8
	c-2.5,8-4.5,16.3-5.2,24.7c-0.3,3.8-0.5,7.4-6.4,5.5c-2.7-0.9-6.3-0.1-9.3,0.9c-8.5,2.8-17.3,1-25.9,2.8
	c-13.5,2.7-26.8,6.2-40.2,8.8c-12.3,2.4-24.2,6.7-37,7.1c-9.4,0.3-18.4,3.8-27.4,6.6c-0.8,0.2-1.6,0.6-2.4,0.8
	c-1.8,0.5-4.2,2.1-5.2-0.4c-1-2.8,2.1-2.8,3.8-3.4c13.5-4.8,27.2-8.7,41.6-9.4c4-0.2,4.1-2.3,3.1-5.4c-3.2-9.6-5.9-19.4-6.8-29.5
	c-0.3-2.8-1.7-5-2.2-7.6c-0.2-1.2-0.4-2.5,0.9-3c1.5-0.6,1.9,0.7,2.4,1.8c1.1,2.8,2.1,5.5,2.6,8.5c1.9,11.2,5.1,22,8.6,32.9
	c4.3,0,7.7-2.7,11.7-3.5c0.8-0.2,1.4-0.6,1-1.3c-2.7-5.2,0.2-11.4-3.7-16.6c-3.3-4.3-4.4-10-5.4-15.4c-0.2-1.2-0.5-2.5,1.1-2.8
	c1.3-0.3,1.7,0.9,1.9,1.9c1.6,7,4.6,13.5,8,19.8c1.1,2.1,1.2,4.4,1,6.8c-0.4,5.3,2.1,7.4,7.2,5.8c13.3-4.3,27.1-6.4,40.8-8.8
	c6.8-1.2,13.8-1.3,20.6-2.2c9.1-1.2,10.8-2.9,8.2-12.3c-3.3-11.7-6.5-23.4-10-35.1c-0.7-2.4-1.1-4.6,1.7-5.3
	c2.2-0.5,3.1,1.6,3.8,3.7c3.6,10.6,6.4,21.4,9.6,33.2c1.2-3.4,3.3-5.8,0.5-8.7c-0.4-0.4-0.8-1.5-0.7-1.6c5.4-3.9,1.1-8.3,0.1-12
	c-2.4-8.9-5.8-17.6-7.7-26.7c-0.2-0.9-0.9-1.8-1.4-2.9c-2.7,2.6-3.1,6.3-4.3,9.4c-1.2,3.2-3.3,4.3-6.1,5c-7.9,2-16,2.6-23.9,4.4
	c-13.2,3.1-26.5,6.2-40,7.9c-8.8,1.1-17,4.3-25.5,6.3c-3.7,0.8-7.1,2.1-11.1,2.5c-11,1.2-21.7,4.3-32.3,7.7
	c-4.4,1.4-9.1,1.9-13.6,2.6c-2.8,0.4-4.7-1.7-6.1-3.4c-0.9-1.1,1.4-2.6,2.5-3.8c7.9-8.7,14.4-18.5,21.1-28.2
	c0.9-1.4,1.8-2.8,2.9-4.1c1.1-1.4,2-3.4,4.3-2.4c2,0.9,1.8,2.7,0.7,4.5c6-0.5,11.5-3.3,17-0.3c0.4,0.2,1.1,0.3,1.4,0.1
	c4.6-3.7,10.6-3.2,15.9-4.9C65.1,86,52,84.5,38.9,84.3c-8.4-0.1-15.6-3.1-23.2-5.4c-3.7-1.1-5.7-3.5-4-7.5c1.5-3.6,0.8-8.9,7.8-7.9
	c4.7,0.7,8.7,2.8,13.9,4c-4.7-9-3.6-17.8-0.1-26.6c2.3-5.7,6.1-9.8,11.4-12.5c1.8-0.9,3.7-1.5,4.8-3.3c2.5-4.1,6.1-5.6,10.9-5.4
	c11.1,0.5,21.9,10.4,24.5,23.5c3.8-9.5,9.2-17.3,16.7-23.3c0.4-0.3,0.9-0.8,0.9-1.1c-0.7-6.6,4-6,8.2-6.1c0.8,0,1.6-0.3,2.4-0.4
	c2.5-0.4,4-3.4,7.3-2.1c6.4,2.4,12.8,4.5,16.5,11c2.6,4.6,5.6,9,5.7,14.6c0,2.4-0.6,4.5-2.5,5.6c-8.4,5-9.8,14.3-15.2,22.5
	c3.2-0.7,4.7-2,6.1-3.2c8.5-7.7,16.8-15.6,25.5-23c2.2-1.9,2.5-7,7.2-5.2C166.7,33.9,170.5,42.7,169.9,47.4z M92.2,109.2
	c2.3,0,2.9,0.1,3.5,0c12.1-1.8,24-4.7,36-7.2c10.7-2.2,21.4-4.2,32.2-6.2c2.7-0.5,4.1-1.7,5.1-4.5c1.4-4,1.1-8.2,2.3-12.1
	c1.1-4-0.9-4-3.5-3.3c-5.3,1.4-10.7,2-16.1,2.9c-13.1,2.2-26.2,3.9-39.1,7.2c-1.9,0.5-4.8,2.6-5.5-0.1c-0.7-2.5,2.9-2.5,4.7-3.1
	c19.2-6.3,39.5-6.9,59-11.7c2.9-0.7,3-2,3.7-4.2c-0.9,0-1.7-0.3-2.2-0.1c-10.2,4.3-21.4,4.2-32,6.5c-1.2,0.3-2.8,0.9-3.5-0.8
	c-0.8-2,0.9-2.6,2.4-3c2.7-0.7,5.5-1.6,8.2-1.8c9.4-0.6,18.2-3.3,26.8-6.8c1.2-0.5,2.3-0.7,2.9-2.1c1.3-3.3,2.9-6.5,4.4-9.9
	c-2-0.9-3.4,0.5-5,0.7c-3.1,0.3-6.9,4.5-9-1.6c-0.3-1-1.4-0.1-2,0.5c-6.2,5.7-13.5,9.7-21.1,13c-11.2,4.8-20.4,13-31.7,17.7
	c-5.5,2.3-11.8,2.4-16.8,6.2c-1.1,0.8-2.2-0.1-3-1c-0.9-1-0.5-1.9,0.3-2.6c3.1-2.6,3-5.3,0.7-8.4c-0.8-1.1-1.1-2.8-1.2-4.2
	c-0.6-10.6,0.6-21.1,3.6-31.4c0.6-2.2,2.3-4.2,1.9-7.9c-3.9,6-7.1,11.2-8.7,17.1c-2.6,9.6-0.7,19.1,1,28.6
	c1.5,8.2-0.8,12.4-7.8,16.6c-6.3,3.7-14.1,2.5-19.9,7.2c-0.5,0.4-1.8,0.3-2.3-0.1c-3.8-2.8-7.8-1.1-11.5-0.3c-4.8,1-9.7,3-12.9,6.8
	c-6.2,7.4-11.9,15.3-17.8,22.9c1.2,0.4,2.4,0,3.7-0.4c12.7-3.2,24.9-8.1,37.8-10.1c8-1.2,13.8-4.3,17.7-11.6c2-3.7,4.3-7.5,7.5-10.5
	c0.9-0.9,1.9-2.3,3.3-0.9c1.1,1.1-0.1,2-0.7,3c-3.3,5-6.6,10-10.7,16.1c5.1-1.5,10.1-1.1,11.8-4.9c2.4-5.3,8.2-8.2,9.5-14.2
	c0.2-1,1.3-2.8,2.9-1.8c1.6,1,0.4,2.4-0.1,3.5C98.9,101.1,97.3,105.5,92.2,109.2z M47.4,43.1c-0.1,4.2-0.1,5.4,2.2,8.6
	C57.6,63,67.9,71,81.7,74c1.2,0.3,3.1,1.8,3.4,0.2c0.4-1.9-0.8-5.9-1.2-5.9c-7.3,0.2-5.7-6.3-7.7-9.9c-4.4-8-8-16.4-15.6-22.1
	c-3.4-2.6-13.4-3.6-16.7-1.5c-8.7,5.7-11.4,21.8-5.1,30.3c7.5,10,17.9,15.3,30.2,17c3.8,0.5,7.5,2.9,11.5,1.3c1.2-0.5,3.1-0.3,3.1-2
	c0-1.8-1.9-1.2-3.1-1.7c-6.8-2.7-14.6-3.5-20.2-8.9c-2.6-2.5-5.1-5.2-8-7.4c-6.7-5-9.4-11.7-9-19.8c0.1-2.1,0.5-4.6,2.9-4.3
	C48.9,39.4,46.9,41.9,47.4,43.1z M97.3,60.9c0.1,3.4,0.1,6.7,1.1,9.9c1,3.4,2.6,3.2,4.6,0.9c3-3.3,5.3-7.2,7.9-10.8
	c7.9-11,10.4-23,7.5-36.2c-0.9-4.1-4.1-5.8-7.7-5.7c-3.3,0.1-2.5,3.1-2.3,5.4c0,0.4-0.3,1-0.6,1.3C98.2,35.7,99.2,48.7,97.3,60.9z
	 M190.2,112.7c0.4-1.7,0.9-3.1,0.9-4.6c0-5.3,3.2-10.3,2.2-15.6c-2.6-13.7-5.8-27.3-7.1-41.8c-5.6,8.5-7.9,17.8-10.6,26.9
	c-0.3,1,0.1,1.9,0.5,2.8C180.8,91,184.1,102.2,190.2,112.7z M121.2,16.8c10.5,24-0.1,42.3-14.3,59.9c4.6-2.1,9-2.8,10.8-9.3
	c2-7.1,6.8-13.5,9.6-20.5c1.3-3.3,3.7-6.6,6.8-8.3c3.2-1.8,2.7-3.5,1.9-6c-1.3-4.3-3.5-8.2-6.4-11.7
	C127.4,18.3,124.6,16.7,121.2,16.8z M83.1,65.7c0.1-5-0.7-10,0.4-14.9c0.1-0.6,0-1.6-0.3-1.8c-3.2-2.1-3.7-5.6-4.9-8.9
	c-2.5-7-7.1-12.4-14.4-14.7c-4.1-1.3-8.5-1.8-11.8,3.3C71.9,33.2,76.6,50.1,83.1,65.7z M46.8,80.2c-5.6-3.1-8.7-10.7-17.1-8.5
	c-2.3,0.6-4.9-1.6-7.3-2.5c-1.7-0.7-4.4-1.6-5.6,1.2c-1.2,2.7,0.1,4.3,2.7,5.2C28.3,78.6,37.2,81.4,46.8,80.2z M142.1,56.6
	c3.4,0.1,5.5-1.8,7.6-3.1c4.8-2.8,9.9-5.4,13.6-9.9c1.5-1.8,0.2-2.7-0.5-3.7c-1.2-1.9-1.9,0-2.5,0.6C154.3,45.7,148.4,51,142.1,56.6
	z"/>
<polygon class="st1" points="15.2,125.7 15.2,137 24.5,184.9 59.5,174.5 111,164.8 178.4,153.5 190.5,115.5 196.3,89 183.3,47.7 
	178.4,43.7 50.2,77.5 "/>
<polygon class="st2" points="69.2,114.3 70,125.1 78.8,159.2 82.2,172 99.8,167.2 98.2,150.5 89.2,135.5 85.6,106.5 103.9,82.9 
	172.6,71.5 170.5,78.7 187.5,118.5 190.5,103.5 173.8,59.5 115.1,73.7 141.2,55.8 164.5,45.2 160.5,29.7 121.2,64 118.7,62.7 
	128.8,42.1 137.2,33.8 126.6,17.9 114.5,12.2 120,30.6 117.5,44.8 107.5,65.5 96.8,75.2 91.8,61 98.5,27 94.3,23.8 83.8,43.7 
	71.5,27 57.3,16.8 44.8,27 57.6,33.3 70.5,41 73.5,52.2 80.1,62.7 82.1,71.2 82.2,75 66.8,70.4 51.5,58 42.5,47.7 42.5,29.2 
	36.5,31.8 29.8,52.2 32.4,65.5 26.8,68.7 12.5,62.7 10.2,71.5 23.5,77.5 43.8,77.2 58.8,80.9 42.8,84 36.8,96 54.8,93.2 59.7,96.5 
	64.8,92.1 82.2,86.5 86.5,84.8 73,108.5 "/>
<path d="M166.9,44.4c5.1-2.9,11.2-1.8,15.5-6c1-0.9,2.3-0.8,3.2-0.2c1.4,0.9,1.1,2.3,0.3,3.5c-1.2,1.6-3.1,3.1,0.9,3.7
	c1.3,0.2,1.6,2.3,1.5,3.9c-0.6,8.1,2.4,15.6,4,23.3c1.1,5.5,1.4,11.2,4,16.3c0.3,0.5,0.3,1.4,0.1,2c-3.6,11.7-4.2,24.1-7.8,35.8
	c-2.5,8-4.5,16.3-5.2,24.7c-0.3,3.8-0.5,7.4-6.4,5.5c-2.7-0.9-6.3-0.1-9.3,0.9c-8.5,2.8-17.3,1-25.9,2.8
	c-13.5,2.7-26.8,6.2-40.2,8.8c-12.3,2.4-24.2,6.7-37,7.1c-9.4,0.3-18.4,3.8-27.4,6.6c-0.8,0.2-1.6,0.6-2.4,0.8
	c-1.8,0.5-4.2,2.1-5.2-0.4c-1-2.8,2.1-2.8,3.8-3.4c13.5-4.8,27.2-8.7,41.6-9.4c4-0.2,4.1-2.3,3.1-5.4c-3.2-9.6-5.9-19.4-6.8-29.5
	c-0.3-2.8-1.7-5-2.2-7.6c-0.2-1.2-0.4-2.5,0.9-3c1.5-0.6,1.9,0.7,2.4,1.8c1.1,2.8,2.1,5.5,2.6,8.5c1.9,11.2,5.1,22,8.6,32.9
	c4.3,0,7.7-2.7,11.7-3.5c0.8-0.2,1.4-0.6,1-1.3c-2.7-5.2,0.2-11.4-3.7-16.6c-3.3-4.3-4.4-10-5.4-15.4c-0.2-1.2-0.5-2.5,1.1-2.8
	c1.3-0.3,1.7,0.9,1.9,1.9c1.6,7,4.6,13.5,8,19.8c1.1,2.1,1.2,4.4,1,6.8c-0.4,5.3,2.1,7.4,7.2,5.8c13.3-4.3,27.1-6.4,40.8-8.8
	c6.8-1.2,13.8-1.3,20.6-2.2c9.1-1.2,10.8-2.9,8.2-12.3c-3.3-11.7-6.5-23.4-10-35.1c-0.7-2.4-1.1-4.6,1.7-5.3
	c2.2-0.5,3.1,1.6,3.8,3.7c3.6,10.6,6.4,21.4,9.6,33.2c1.2-3.4,3.3-5.8,0.5-8.7c-0.4-0.4-0.8-1.5-0.7-1.6c5.4-3.9,1.1-8.3,0.1-12
	c-2.4-8.9-5.8-17.6-7.7-26.7c-0.2-0.9-0.9-1.8-1.4-2.9c-2.7,2.6-3.1,6.3-4.3,9.4c-1.2,3.2-3.3,4.3-6.1,5c-7.9,2-16,2.6-23.9,4.4
	c-13.2,3.1-26.5,6.2-40,7.9c-8.8,1.1-17,4.3-25.5,6.3c-3.7,0.8-7.1,2.1-11.1,2.5c-11,1.2-21.7,4.3-32.3,7.7
	c-4.4,1.4-9.1,1.9-13.6,2.6c-2.8,0.4-4.7-1.7-6.1-3.4c-0.9-1.1,1.4-2.6,2.5-3.8c7.9-8.7,14.4-18.5,21.1-28.2
	c0.9-1.4,1.8-2.8,2.9-4.1c1.1-1.4,2-3.4,4.3-2.4c2,0.9,1.8,2.7,0.7,4.5c6-0.5,11.5-3.3,17-0.3c0.4,0.2,1.1,0.3,1.4,0.1
	c4.6-3.7,10.6-3.2,15.9-4.9C62.1,83,49,81.5,35.9,81.3c-8.4-0.1-15.6-3.1-23.2-5.4c-3.7-1.1-5.7-3.5-4-7.5c1.5-3.6,0.8-8.9,7.8-7.9
	c4.7,0.7,8.7,2.8,13.9,4c-4.7-9-3.6-17.8-0.1-26.6c2.3-5.7,6.1-9.8,11.4-12.5c1.8-0.9,3.7-1.5,4.8-3.3c2.5-4.1,6.1-5.6,10.9-5.4
	c11.1,0.5,21.9,10.4,24.5,23.5C85.7,30.8,91,23.1,98.6,17c0.4-0.3,0.9-0.8,0.9-1.1c-0.7-6.6,4-6,8.2-6.1c0.8,0,1.6-0.3,2.4-0.4
	c2.5-0.4,4-3.4,7.3-2.1c6.4,2.4,12.8,4.5,16.5,11c2.6,4.6,5.6,9,5.7,14.6c0,2.4-0.6,4.5-2.5,5.6c-8.4,5-9.8,14.3-15.2,22.5
	c3.2-0.7,4.7-2,6.1-3.2c8.5-7.7,16.8-15.6,25.5-23c2.2-1.9,2.5-7,7.2-5.2C163.7,30.9,167.5,39.7,166.9,44.4z M89.2,106.2
	c2.3,0,2.9,0.1,3.5,0c12.1-1.8,24-4.7,36-7.2c10.7-2.2,21.4-4.2,32.2-6.2c2.7-0.5,4.1-1.7,5.1-4.5c1.4-4,1.1-8.2,2.3-12.1
	c1.1-4-0.9-4-3.5-3.3c-5.3,1.4-10.7,2-16.1,2.9c-13.1,2.2-26.2,3.9-39.1,7.2c-1.9,0.5-4.8,2.6-5.5-0.1c-0.7-2.5,2.9-2.5,4.7-3.1
	c19.2-6.3,39.5-6.9,59-11.7c2.9-0.7,3-2,3.7-4.2c-0.9,0-1.7-0.3-2.2-0.1c-10.2,4.3-21.4,4.2-32,6.5c-1.2,0.3-2.8,0.9-3.5-0.8
	c-0.8-2,0.9-2.6,2.4-3c2.7-0.7,5.5-1.6,8.2-1.8c9.4-0.6,18.2-3.3,26.8-6.8c1.2-0.5,2.3-0.7,2.9-2.1c1.3-3.3,2.9-6.5,4.4-9.9
	c-2-0.9-3.4,0.5-5,0.7c-3.1,0.3-6.9,4.5-9-1.6c-0.3-1-1.4-0.1-2,0.5c-6.2,5.7-13.5,9.7-21.1,13c-11.2,4.8-20.4,13-31.7,17.7
	c-5.5,2.3-11.8,2.4-16.8,6.2c-1.1,0.8-2.2-0.1-3-1c-0.9-1-0.5-1.9,0.3-2.6c3.1-2.6,3-5.3,0.7-8.4c-0.8-1.1-1.1-2.8-1.2-4.2
	c-0.6-10.6,0.6-21.1,3.6-31.4c0.6-2.2,2.3-4.2,1.9-7.9c-3.9,6-7.1,11.2-8.7,17.1c-2.6,9.6-0.7,19.1,1,28.6
	c1.5,8.2-0.8,12.4-7.8,16.6c-6.3,3.7-14.1,2.5-19.9,7.2c-0.5,0.4-1.8,0.3-2.3-0.1c-3.8-2.8-7.8-1.1-11.5-0.3c-4.8,1-9.7,3-12.9,6.8
	c-6.2,7.4-11.9,15.3-17.8,22.9c1.2,0.4,2.4,0,3.7-0.4c12.7-3.2,24.9-8.1,37.8-10.1c8-1.2,13.8-4.3,17.7-11.6c2-3.7,4.3-7.5,7.5-10.5
	c0.9-0.9,1.9-2.3,3.3-0.9c1.1,1.1-0.1,2-0.7,3c-3.3,5-6.6,10-10.7,16.1c5.1-1.5,10.1-1.1,11.8-4.9c2.4-5.3,8.2-8.2,9.5-14.2
	c0.2-1,1.3-2.8,2.9-1.8c1.6,1,0.4,2.4-0.1,3.5C95.9,98.1,94.3,102.5,89.2,106.2z M44.4,40.1c-0.1,4.2-0.1,5.4,2.2,8.6
	C54.6,60,64.9,68,78.7,71c1.2,0.3,3.1,1.8,3.4,0.2c0.4-1.9-0.8-5.9-1.2-5.9c-7.3,0.2-5.7-6.3-7.7-9.9c-4.4-8-8-16.4-15.6-22.1
	c-3.4-2.6-13.4-3.6-16.7-1.5c-8.7,5.7-11.4,21.8-5.1,30.3c7.5,10,17.9,15.3,30.2,17c3.8,0.5,7.5,2.9,11.5,1.3c1.2-0.5,3.1-0.3,3.1-2
	c0-1.8-1.9-1.2-3.1-1.7c-6.8-2.7-14.6-3.5-20.2-8.9c-2.6-2.5-5.1-5.2-8-7.4c-6.7-5-9.4-11.7-9-19.8c0.1-2.1,0.5-4.6,2.9-4.3
	C45.9,36.4,43.9,38.9,44.4,40.1z M94.3,57.9c0.1,3.4,0.1,6.7,1.1,9.9c1,3.4,2.6,3.2,4.6,0.9c3-3.3,5.3-7.2,7.9-10.8
	c7.9-11,10.4-23,7.5-36.2c-0.9-4.1-4.1-5.8-7.7-5.7c-3.3,0.1-2.5,3.1-2.3,5.4c0,0.4-0.3,1-0.6,1.3C95.2,32.7,96.2,45.7,94.3,57.9z
	 M187.2,109.7c0.4-1.7,0.9-3.1,0.9-4.6c0-5.3,3.2-10.3,2.2-15.6c-2.6-13.7-5.8-27.3-7.1-41.8c-5.6,8.5-7.9,17.8-10.6,26.9
	c-0.3,1,0.1,1.9,0.5,2.8C177.8,88,181.1,99.2,187.2,109.7z M118.2,13.8c10.5,24-0.1,42.3-14.3,59.9c4.6-2.1,9-2.8,10.8-9.3
	c2-7.1,6.8-13.5,9.6-20.5c1.3-3.3,3.7-6.6,6.8-8.3c3.2-1.8,2.7-3.5,1.9-6c-1.3-4.3-3.5-8.2-6.4-11.7
	C124.4,15.3,121.6,13.7,118.2,13.8z M80.1,62.7c0.1-5-0.7-10,0.4-14.9c0.1-0.6,0-1.6-0.3-1.8c-3.2-2.1-3.7-5.6-4.9-8.9
	c-2.5-7-7.1-12.4-14.4-14.7c-4.1-1.3-8.5-1.8-11.8,3.3C68.9,30.2,73.6,47.1,80.1,62.7z M43.8,77.2c-5.6-3.1-8.7-10.7-17.1-8.5
	c-2.3,0.6-4.9-1.6-7.3-2.5c-1.7-0.7-4.4-1.6-5.6,1.2c-1.2,2.7,0.1,4.3,2.7,5.2C25.3,75.6,34.2,78.4,43.8,77.2z M139.1,53.6
	c3.4,0.1,5.5-1.8,7.6-3.1c4.8-2.8,9.9-5.4,13.6-9.9c1.5-1.8,0.2-2.7-0.5-3.7c-1.2-1.9-1.9,0-2.5,0.6C151.3,42.7,145.4,48,139.1,53.6
	z"/>
<path d="M20.1,169.9c-1.3-6.4-2.9-14.2-4.6-21.9c-0.8-3.4-2-6.6-2.8-10c-0.3-1.5-0.6-3.6,1.7-4.1c2.1-0.5,2.4,1.4,2.9,2.7
	c3.8,10.6,7.2,21.3,8.1,32.5c0.4,5.3,2.2,10.2,2.1,15.5c0,1.6,0.2,3.1-2,3.2c-1.6,0.1-3.3-0.2-3.4-2
	C21.8,180.9,18.6,176.4,20.1,169.9z"/>
<path class="st0" d="M66.2,173.5c0,0,48.6-14.5,70.3-27s35.2-30.2,35.2-30.2s4.1-2,10.2-6.6c6.1-4.6,11.4-17.2,11.4-17.2L181.6,147
	l-3.1,6.5l-41.9,4.8l-58.5,15.4L66.2,173.5z"/>
<path class="st0" d="M108.4,73.4c0,0,40.1-12.4,48.8-14.6c8.8-2.3,17.2-14,17.2-14l-16,1.4l-33.8,17.9L108.4,73.4z"/>
</svg>
