<?xml version="1.0" encoding="utf-8"?>
<!-- Generator: Adobe Illustrator 22.1.0, SVG Export Plug-In . SVG Version: 6.00 Build 0)  -->
<svg version="1.1" id="Layer_1" xmlns="http://www.w3.org/2000/svg" xmlns:xlink="http://www.w3.org/1999/xlink" x="0px" y="0px"
	 viewBox="0 0 122.7 186.8" style="enable-background:new 0 0 122.7 186.8;" xml:space="preserve">
<style type="text/css">
	.st0{opacity:0.2;}
	.st1{fill:#FFE000;}
	.st2{fill:#FFFFFF;}
</style>
<path class="st0" d="M66,169.5c-19.4,0.3-35.6-7.7-43-25.4c-7.5-17.9-2.5-45.7,11.7-58.7c6-5.5,13.8-7,21.7-6.1
	c4.3,0.5,5.1-0.7,4.7-4.5c-1.7-14.2-2.1-28.4-2.9-42.7c-0.3-5.8,0.8-10.8,6.7-13.8c5.4-2.8,9.5-1.8,12.4,3.5c2.1,3.8,2,8,1.7,12.1
	c-0.1,1-0.2,2.2-1.4,2.4c-1.6,0.3-2-1.2-2-2.3c-0.2-3.2-1.3-6.2-3.2-8.8c-1-1.3-1.9-3.2-3.8-2.7c-2,0.5-3.6,1.8-4.5,4.1
	c-1.3,3.5-0.2,6.9-0.2,10.3c0.1,12,1.1,23.9,1.9,35.8c0.1,2.1,0.3,3.8,3,4.3c11.4,2,20.6,8.8,30.4,14.3c1.3,0.7,1.6,2,2.4,3.1
	c9,13.1,6.6,27.2,3.6,41.2c-2.9,13.9-12.7,22.6-23.7,30.1C76.7,169.2,70.8,170,66,169.5z M26.1,121.1c-0.4,18,4.5,32.4,22.3,39.3
	c9.6,3.7,19.8,5,28.9,0.2c9.4-5,17.2-12.2,20.8-23.1c2.7-7.9,2.7-16,3.6-24c0.7-6-1.9-12.7-6.8-16.5c-7.3-5.6-15.3-10.4-24.6-12.8
	c-2.8-0.7-4.1-0.2-4.2,2.7c0,1.2,0,2.5-1.5,2.8c-1.6,0.3-2.6-0.7-3-2c-0.5-1.5-1-2.9-2.8-3.1c-7.5-0.9-15.4-0.2-20.4,5.5
	C30.9,98.9,24.6,108.9,26.1,121.1z"/>
<polygon class="st1" points="19.5,119.8 21.9,103.8 26.5,90.8 35.5,81.5 42,78.8 56.2,77.5 68,77.5 86,85.8 96.5,93.4 101.8,109.5 
	97.9,132.5 87.2,150.5 74,159.7 58,162.5 40,158.2 33.5,154 26.2,149.2 18.2,131 "/>
<path class="st0" d="M72.8,144.5c10.5-7.1,26.8-30.2,26.8-30.2l-1.6,18.2l-8.4,15.3l-11.9,14l-24.1,0.7l-20-8.5
	C33.5,154,60.2,153,72.8,144.5z"/>
<path d="M62,165.5c-19.4,0.3-35.6-7.7-43-25.4c-7.5-17.9-2.5-45.7,11.7-58.7c6-5.5,13.8-7,21.7-6.1c4.3,0.5,5.1-0.7,4.7-4.5
	c-1.7-14.2-2.1-28.4-2.9-42.7c-0.3-5.8,0.8-10.8,6.7-13.8c5.4-2.8,9.5-1.8,12.4,3.5c2.1,3.8,2,8,1.7,12.1c-0.1,1-0.2,2.2-1.4,2.4
	c-1.6,0.3-2-1.2-2-2.3c-0.2-3.2-1.3-6.2-3.2-8.8c-1-1.3-1.9-3.2-3.8-2.7c-2,0.5-3.6,1.8-4.5,4.1c-1.3,3.5-0.2,6.9-0.2,10.3
	c0.1,12,1.1,23.9,1.9,35.8c0.1,2.1,0.3,3.8,3,4.3c11.4,2,20.6,8.8,30.4,14.3c1.3,0.7,1.6,2,2.4,3.1c9,13.1,6.6,27.2,3.6,41.2
	c-2.9,13.9-12.7,22.6-23.7,30.1C72.7,165.2,66.8,166,62,165.5z M22.1,117.1c-0.4,18,4.5,32.4,22.3,39.3c9.6,3.7,19.8,5,28.9,0.2
	c9.4-5,17.2-12.2,20.8-23.1c2.7-7.9,2.7-16,3.6-24c0.7-6-1.9-12.7-6.8-16.5c-7.3-5.6-15.3-10.4-24.6-12.8c-2.8-0.7-4.1-0.2-4.2,2.7
	c0,1.2,0,2.5-1.5,2.8c-1.6,0.3-2.6-0.7-3-2c-0.5-1.5-1-2.9-2.8-3.1c-7.5-0.9-15.4-0.2-20.4,5.5C26.9,94.9,20.6,104.9,22.1,117.1z"/>
<path d="M93.9,115.4c-1.1,3.8,0.6,8.4-2.4,8.5c-2.6,0-1.1-4.7-1.3-7.3c-0.6-7-5.2-11.6-9.6-16.2c-1.3-1.3-3.4-2.4-2-4.3
	c1.4-1.9,3.7-0.7,4.8,0.5C88.6,102.3,93.3,108.3,93.9,115.4z"/>
<path d="M71.3,126.3c-1,1.8,1.6,6.1-1.8,6.2c-2.5,0-1.8-4.3-1.8-6.8c-0.2-6.4-1.8-12.3-4.9-17.9c-0.7-1.2-2.2-2.7-0.1-3.7
	c1.6-0.8,2.7,0.8,3.4,2C69.5,112.2,71.4,118.8,71.3,126.3z"/>
<path class="st2" d="M27.2,112.5c0,0,0-17.6,10.5-23.3c10.5-5.7,15-4.9,15-4.9s-10,4.8-14.5,10.9S27.2,112.5,27.2,112.5z"/>
</svg>
